<svg xmlns="http://www.w3.org/2000/svg" xmlns:xlink="http://www.w3.org/1999/xlink" version="1.1" x="0px" y="0px" viewBox="0 0 100 125" enable-background="new 0 0 100 100" xml:space="preserve"><path d="M74.898,90.499H45.854L24.941,35.345l28.567-18.08c0.1-0.062,0.181-0.145,0.273-0.217l5.938,5.938  c-2.761,7.503-1.148,16.25,4.875,22.274l29.926-29.926c-6.025-6.024-14.772-7.637-22.276-4.879l-7.188-7.188  c-2.879-2.879-7.226-3.324-10.603-1.418l-0.914-0.916c-0.923-0.923-2.422-0.923-3.345,0c-0.923,0.926-0.923,2.424,0,3.348  l0.914,0.914c-1.016,1.802-1.376,3.869-1.03,5.854c-0.13,0.062-0.26,0.116-0.385,0.193L18.675,30.877c-0.003,0-0.003,0-0.005,0  c-0.201,0.13-0.387,0.278-0.557,0.44c-0.074,0.07-0.132,0.153-0.199,0.23c-0.084,0.098-0.177,0.189-0.251,0.295  c-0.064,0.094-0.113,0.199-0.171,0.297c-0.056,0.102-0.121,0.196-0.167,0.303c-0.042,0.094-0.065,0.193-0.098,0.291  c-0.042,0.12-0.093,0.236-0.121,0.361c-0.021,0.095-0.025,0.195-0.039,0.292c-0.017,0.13-0.044,0.255-0.049,0.386  c-0.005,0.146,0.014,0.291,0.028,0.436c0.007,0.084,0.002,0.167,0.016,0.253c0.039,0.233,0.1,0.466,0.188,0.693l20.983,55.345  H14.797c-2.621,0-4.751,2.127-4.751,4.75c0,2.624,2.13,4.751,4.751,4.751h60.102c2.624,0,4.751-2.127,4.751-4.751  C79.649,92.626,77.522,90.499,74.898,90.499z"/><text x="0" y="115" fill="#000000" font-size="5px" font-weight="bold" font-family="'Helvetica Neue', Helvetica, Arial-Unicode, Arial, Sans-serif">Created by Sergey Krivoy</text><text x="0" y="120" fill="#000000" font-size="5px" font-weight="bold" font-family="'Helvetica Neue', Helvetica, Arial-Unicode, Arial, Sans-serif">from the Noun Project</text></svg>