<svg xmlns="http://www.w3.org/2000/svg" xmlns:xlink="http://www.w3.org/1999/xlink" version="1.1" x="0px" y="0px" viewBox="0 0 100 125" enable-background="new 0 0 100 100" xml:space="preserve"><path fill="#000000" d="M88,19.1c-0.2-0.2-0.4-0.5-0.5-0.7c-2.7-3.2-6.7-4.9-10.6-4.5c-2.9-3.6-6.3-6.1-9-7.2l-1.4,1.3l-2-2.5  l-0.9,0.7c-0.7-1.6-2.2-2.9-4-3.4c-2-0.5-4.3,0-5.8,1.6c-0.5,0.5-1.1,1.4-1.4,2.3c-1.1,2.7-1.4,5.6-0.9,8.5c0.2,1.4,0.7,2.9,1.3,4.3  c0.7,2,1.3,4,1.4,5.9l-19.4,16l-0.4,0.4l0,0l0,0l0.2,0.4l20.3,30l0,0v17.1c0,0.2,0,0.2,0,0.4h-3.6v4h-5.9v4H70v-4h-5.6v-4.1h-3.6  c0-0.2,0-0.2,0-0.4V72c0-1.1-0.5-2-1.4-2.5L39.6,40.1l25.2-20.9c0.5,0.9,1.3,1.8,2,2.9c-1.3,3.8-0.7,7.9,2,11.3  c0.2,0.2,0.4,0.4,0.5,0.5C69.1,34,88.2,19.3,88,19.1z M56.9,69.3c-0.4,0.2-0.5,0.4-0.9,0.5L37.2,42.1l0.7-0.5L56.9,69.3z M54.7,24.8  c-0.2-2-0.7-3.8-1.4-5.6c-0.5-1.4-0.9-2.9-1.3-4.3c-0.5-2.7-0.2-5.6,0.9-7.9c0.4-0.9,0.7-1.6,1.3-2.2c1.3-1.3,3.2-1.8,5-1.4  c1.6,0.4,2.9,1.6,3.6,3.1l-1.6,1.3l2,2.5l-1.4,1.3c0.2,1.8,0.9,3.8,2,5.8L54.7,24.8z"/><text x="0" y="115" fill="#000000" font-size="5px" font-weight="bold" font-family="'Helvetica Neue', Helvetica, Arial-Unicode, Arial, Sans-serif">Created by Jo Bailey</text><text x="0" y="120" fill="#000000" font-size="5px" font-weight="bold" font-family="'Helvetica Neue', Helvetica, Arial-Unicode, Arial, Sans-serif">from the Noun Project</text></svg>