<svg xmlns="http://www.w3.org/2000/svg" xmlns:xlink="http://www.w3.org/1999/xlink" version="1.1" x="0px" y="0px" viewBox="0 0 100 125" style="enable-background:new 0 0 100 100;" xml:space="preserve"><g><path d="M74.9,87.7c-0.3-0.1-0.6-0.1-0.8-0.2c-0.4-0.1-0.8-0.1-1.3-0.2c-0.6-0.1-1.2-0.2-1.8-0.2c-0.8-0.1-1.6-0.1-2.4-0.2   c-1-0.1-2-0.1-3-0.2c-1.3-0.1-2.5-0.1-3.8-0.2c-1.6,0-3.1-0.1-4.7-0.1c-1.9,0-3.7,0-5.6-0.1c-0.1,0-1.4,0-1.6,0c-0.2,0-1.5,0-1.6,0   c-1.9,0-3.7,0-5.6,0.1c-1.6,0-3.1,0.1-4.7,0.1c-1.3,0-2.5,0.1-3.8,0.2c-1,0.1-2,0.1-3,0.2c-0.8,0.1-1.6,0.1-2.4,0.2   c-0.6,0.1-1.2,0.1-1.8,0.2c-0.4,0.1-0.8,0.1-1.3,0.2c-0.3,0.1-0.6,0.1-0.8,0.2c-0.2,0.1-0.7,0.2-0.8,0.3c0,0.1,0,0.2,0,0.2   c0.3,0.6,1,1.1,1.6,1.4c-0.3-0.3-1.1-1.1-0.6-1.5c0.2-0.2,0.5-0.2,0.8-0.2c1-0.2,2.1-0.3,3.1-0.4c1.2-0.1,2.5-0.2,3.7-0.2   c1.3-0.1,2.6-0.1,4-0.1c1.3,0,2.6-0.1,3.9-0.1c0.8,0,1.6,0,2.4,0c0.4,2.6,3.2,4.6,6.7,4.6c3.5,0,6.3-2,6.7-4.6c0.9,0,1.8,0,2.7,0   c1.3,0,2.6,0,3.9,0.1c1.3,0,2.6,0.1,4,0.1c1.2,0.1,2.5,0.1,3.7,0.2c1,0.1,2.1,0.2,3.1,0.4c0.2,0,0.6,0,0.8,0.2   c0.5,0.5-0.3,1.2-0.6,1.5c0.6-0.3,1.3-0.7,1.6-1.4c0-0.1,0.1-0.2,0-0.2C75.6,87.9,75.1,87.8,74.9,87.7z M49.8,91.3   c-3.3,0-5.9-1.8-6.3-4.2c0.3,0,0.5,0,0.8,0c1,0,2,0,2.9,0c0.7,0,1.3,0,2,0c0.2,0,0.5,0,0.7,0v0c0,0,0,0,0,0c0,0,0,0,0,0v0   c0.2,0,0.5,0,0.7,0c0.7,0,1.3,0,2,0c1,0,2,0,2.9,0c0.2,0,0.3,0,0.5,0C55.7,89.5,53.1,91.3,49.8,91.3z"/><path d="M77,85.3L77,85.3c-0.2-3.3-2-17.8-20-27.9c0.4-2.9-2.5-4.1-2.5-4.1v-5.7c0,0,0.2-5.2-4-6.8V7.1h-0.8v33.7   c-4.3,1.6-4.1,6.8-4.1,6.8v5.7c0,0-2.9,1.2-2.5,4.1C25,67.4,23.2,82,23.1,85.3l0,0c0,0-2.5,1.1-2,3.1c0.2,1.2,1.6,1.7,2.6,2.1   c1.8,0.7,3.7,1.1,5.6,1.4c3.9,0.7,7.9,0.8,11.8,1c3,0.1,6,0.1,9,0.1c3,0,6,0,9-0.1c3.9-0.1,7.9-0.3,11.8-1c1.9-0.3,3.8-0.8,5.6-1.4   c1-0.4,2.4-0.9,2.6-2.1C79.4,86.4,77,85.3,77,85.3z M73.1,84.5h-1.2c0,0,0.4-5.3-3.3-11.9C68.6,72.7,72.7,77.6,73.1,84.5z M50,40.6   C50,40.6,50,40.6,50,40.6C50,40.6,50,40.6,50,40.6L50,40.6C50,40.6,50,40.6,50,40.6C50,40.6,50,40.6,50,40.6L50,40.6z M46.2,51.9   c0-0.6,0-1.1,0-1.7c0-1.1,0-2.1,0-3.2c0-0.9-0.1-1.9,0.4-2.8c0.3-0.5,0.7-0.9,1.1-1.3c0.5-0.4,1.1-0.8,1.7-1c-0.9,0.4-1.5,1-2,1.9   c-0.2,0.4-0.3,0.7-0.4,1.1c-0.1,0.5-0.1,1-0.1,1.6c0,1,0,2.1,0,3.1v2.9h-0.8C46.1,52.4,46.1,52.2,46.2,51.9z M44.1,56   c0.3-0.8,0.8-1.4,1.4-1.9l0.5,0c0.8-0.1,1.6-0.1,2.2,0.4c-1.4,0-2.8,0.6-3.7,1.7c-0.1,0.1-0.2,0.2-0.4,0.2   C44,56.4,44.1,56.2,44.1,56z M43.5,58.2l0.8-0.4h4.1c0,0,0.4,0.4-0.8,0.4h-2.9c0,0-17.2,7.4-20,27h-0.8   C23.9,85.2,25.1,68.4,43.5,58.2z M28.1,84.5h-1.2c0.4-7,4.5-11.9,4.5-11.9C27.7,79.2,28.1,84.5,28.1,84.5z M77.9,88   c-0.2,1.1-1.8,1.7-2.7,2.1c-0.3,0-0.7,0.2-1.1,0.3c-0.3,0.1-0.6,0.1-1,0.2c-0.8,0.1-1.5,0.3-2.3,0.4c-1.5,0.2-3.1,0.4-4.6,0.6   c-4.1,0.5-8.2,0.7-12.4,0.8c-1.3,0-2.6,0-3.8,0v0c0,0,0,0,0,0c0,0,0,0,0,0v0c-1.3,0-2.6,0-3.8,0c-4.1-0.1-8.3-0.3-12.4-0.8   c-1.6-0.2-3.1-0.4-4.6-0.6c-0.8-0.1-1.5-0.2-2.3-0.4c-0.3-0.1-0.6-0.1-1-0.2c-0.3-0.1-0.7-0.3-1.1-0.3c-0.9-0.4-2.5-1-2.7-2.1   c-0.2-0.9,0.5-1.6,1.2-2.1c5.6-1.1,25.9-1.2,26.7-1.2c0.7,0,21.1,0,26.7,1.2C77.5,86.4,78.1,87.1,77.9,88z"/><path d="M53.7,88.4l-0.3,0.1c-0.2,0.1-0.4,0.3-0.5,0.5c-0.1,0.1-0.1,0.2-0.1,0.3c0.1,0.2,0.3,0.2,0.5,0.1c0.3-0.1,0.5-0.4,0.5-0.6   C53.8,88.6,54,88.5,53.7,88.4z"/><path d="M55,87.9l-0.2-0.1c-0.2,0.1-0.2,0.3-0.1,0.5c0.1,0.1,0.4,0.1,0.5,0C55.3,88.1,55.2,87.9,55,87.9z"/></g></svg>